<svg xmlns="http://www.w3.org/2000/svg" xmlns:xlink="http://www.w3.org/1999/xlink"  version="1.1" x="0px" y="0px" viewBox="0 0 65 81.25" enable-background="new 0 0 65 65" xml:space="preserve"><g><path d="M65.3,52.4V9.5H44.8V4.9H12.2v4.6H-0.2v42.9h23.4v6.3h-3.7v1.5h26.3v-1.5h-3.7v-6.3H65.3z M13.7,6.4h29.6v34.5H13.7V6.4z    M12.2,11v29.9h-1.9v1.5h36.4v-1.5h-1.9V11h19v35.2H1.3V11H12.2z M1.3,50.9v-3.2h62.5v3.2H1.3z M40.4,58.6H24.6v-6.3h15.8V58.6z"/><path d="M54.8,43.5c2.8,0,5-2.3,5-5v-3.7c0-2.4-1.7-4.4-4-4.9c1-2.9,0.4-3.8-0.6-4.9c-0.6-0.6-1.2-1.3-1.2-3.3h-1.5   c0,2.6,0.9,3.6,1.6,4.3c0.7,0.7,1.1,1.2,0.1,3.8c-2.5,0.3-4.5,2.4-4.5,5v3.7C49.8,41.2,52,43.5,54.8,43.5z M51.3,34.7   c0-1.9,1.6-3.5,3.5-3.5c1.9,0,3.5,1.6,3.5,3.5v3.7c0,1.9-1.6,3.5-3.5,3.5c-1.9,0-3.5-1.6-3.5-3.5V34.7z"/><rect x="54.1" y="33" width="1.5" height="1.8"/><path d="M16,24.7h25V8.7H16V24.7z M17.5,23.2v-0.4l5.1-4.8l2.6,2.4l3.5-3.9l6.1,5.8l2.5-2.3l2.2,2.1v1.2H17.5z M39.5,10.2V20   l-2.2-2.1l-2.5,2.3l-6.2-5.8l-3.5,3.9l-2.5-2.3l-5.1,4.8V10.2H39.5z"/><path d="M34.9,16.5c1.3,0,2.4-1.1,2.4-2.4c0-1.3-1.1-2.4-2.4-2.4c-1.3,0-2.4,1.1-2.4,2.4C32.5,15.5,33.6,16.5,34.9,16.5z    M34.9,13.3c0.5,0,0.9,0.4,0.9,0.9c0,0.5-0.4,0.9-0.9,0.9c-0.5,0-0.9-0.4-0.9-0.9C34,13.7,34.4,13.3,34.9,13.3z"/><rect x="16" y="27.4" width="25" height="1.5"/><rect x="16" y="31.8" width="25" height="1.5"/><rect x="19.5" y="36.2" width="17.9" height="1.5"/></g></svg>